<svg width="532" height="202" viewBox="0 0 532 202" fill="none" xmlns="http://www.w3.org/2000/svg">
<path d="M164.677 7.86327C164.404 9.13028 164.356 9.4601 164.153 11.455C163.991 13.0455 164.028 15.0084 164.241 16.2084C164.285 16.4582 164.34 16.7698 164.365 16.9277C164.693 18.9052 165.975 21.9219 167.13 23.4271C168.11 24.7033 170.296 26.7612 170.855 26.9335C170.981 26.9721 171.112 27.0777 171.132 27.1578C171.273 27.7168 167.82 25.7303 166.534 24.5126C165.683 23.7055 164.776 22.5089 164.045 21.2274C163.618 20.4771 162.916 18.3912 163 18.1196C163.021 18.0498 162.976 17.9733 162.901 17.9502C162.815 17.9239 162.761 18.0252 162.756 18.2184C162.752 18.3909 162.732 18.9546 162.711 19.4902C162.651 20.9593 162.705 22.5147 162.851 23.6065C163.166 25.9414 164.511 29.3706 165.944 31.49C169.041 36.0676 174.737 39.8057 182.051 42.0583C183.569 42.5258 184.344 42.8132 184.27 42.8807C184.209 42.9356 184.055 42.9535 183.942 42.9187C183.824 42.8824 183.232 42.8599 182.625 42.8689C181.584 42.8835 181.036 42.8535 179.584 42.7053C177.32 42.4737 173.355 41.4499 171.632 40.6509C168.219 39.07 165.175 36.8091 163.441 34.5681C163.097 34.1244 162.783 33.7706 162.748 33.7887C162.655 33.8352 163.158 36.5869 163.529 38.0634C164.4 41.5246 166.313 45.1498 168.668 47.8003C169.606 48.8565 177.725 57.4664 178.331 57.2736C179.434 56.2541 179.762 56.0118 182.051 54.2458C184.22 52.5719 189.387 51.163 190.779 51.0186C192.171 50.8743 196.217 50.8053 200.82 52.7614C203.042 53.7059 204.246 54.4002 205.865 55.4894C207.485 56.5786 208.181 57.2736 208.877 57.9686C209.61 56.1928 213.149 46.4236 213.277 45.351C213.34 44.8281 213.435 44.0569 213.493 43.6105C213.64 42.4742 213.753 40.6644 213.749 39.5051C213.743 37.7238 213.33 34.5109 212.96 33.3542C212.886 33.1229 212.837 32.9035 212.85 32.8616C212.901 32.6966 212.172 30.3871 211.62 28.9661C210.922 27.1662 208.778 23.2185 207.768 21.8718C207.351 21.3151 206.554 20.3316 205.998 19.6863C205.442 19.0409 204.867 18.3581 204.722 18.17C204.437 17.8015 204.204 17.8617 204.283 18.2824C204.358 18.6779 204.429 19.4255 204.499 20.5451C204.533 21.0978 204.573 21.6648 204.589 21.824C204.717 23.12 204.605 27.9313 204.416 29.277C204.373 29.5754 204.304 30.1044 204.257 30.4793C204.212 30.8461 204.063 31.7123 203.929 32.3939C202.682 38.7378 200.131 44.0919 196.276 48.4552C195.9 48.8814 195.892 48.8831 195.952 48.5361C195.986 48.3382 196.098 48.0946 196.203 47.988C196.574 47.6128 198.778 43.2902 199.726 41.08C200.363 39.5942 201.998 34.3289 202.192 33.1376C202.271 32.6478 202.422 31.749 202.528 31.1284C203.623 24.7374 202.44 18.4002 199.338 14.0291C198.241 12.4833 196.155 10.5008 194.315 9.25295C191.423 7.29478 189.804 6.42206 186.306 4.93611C183.586 3.78122 183.195 3.70554 183.882 4.46745C185.275 6.0113 187.016 11.1291 187.447 14.9457C187.487 15.3084 187.555 15.9105 187.601 16.3138C187.764 17.7665 187.656 20.4314 187.355 22.4239C187.272 22.9683 187.172 23.7158 187.133 24.0722C187.094 24.4342 186.911 25.2132 186.723 25.8225C186.535 26.4318 186.368 27.1601 186.348 27.4585C186.328 27.7583 186.283 28.0125 186.247 28.0319C186.102 28.1084 185.894 27.6175 185.968 27.3763C186.053 27.1021 186.065 23.5416 185.989 21.2801C185.962 20.5184 185.922 19.258 185.899 18.4584C185.845 16.6348 185.164 12.1422 184.703 10.5699C184.049 8.33877 182.896 6.34337 181.614 5.22586C181.311 4.96154 180.978 4.66991 180.857 4.56317C180.167 3.95579 178.172 2.8505 176.364 2.07424C174.465 1.25847 171 0.362101 168.464 0.0302467C167.923 -0.0405851 167.863 -0.0146452 167.571 0.41399C167.12 1.07849 166.533 2.33236 165.777 4.24036C165.063 6.0499 165.085 5.97331 164.677 7.86327ZM173.719 10.7691C174.205 11.1537 180.873 20.1451 181.138 20.773C181.16 20.8257 181.411 21.2256 181.692 21.6525C181.972 22.0794 182.225 22.4743 182.248 22.519C182.271 22.5637 182.603 23.1051 182.979 23.7115C183.816 25.0607 186.063 29.435 187.029 31.5953C187.887 33.5138 189.444 37.4725 189.398 37.621C189.379 37.6832 189.444 37.8728 189.543 38.041C189.719 38.3384 189.727 38.334 189.872 37.8644C189.953 37.6016 190.249 37.0353 190.522 36.6189C191.943 34.457 193.367 31.2607 193.904 29.0282C194.084 28.2773 194.236 27.5625 194.243 27.4297C194.25 27.2927 194.298 27.2033 194.355 27.2211C194.483 27.2605 194.484 28.7342 194.357 29.6541C194.306 30.0193 194.111 31.1423 193.927 32.1422C193.636 33.7206 193.512 34.1452 192.998 35.3241C192.385 36.7311 192.339 36.817 191.318 38.518C190.408 40.031 190.153 40.4167 189.844 40.7472L189.561 41.0493L189.007 39.4744C188.425 37.8259 186.284 33.5592 184.812 31.1182C184.34 30.3359 183.767 29.37 183.547 28.9868C183.326 28.6016 182.762 27.6371 182.293 26.8422C181.825 26.0472 181.341 25.2115 181.219 24.9823C181.096 24.751 180.642 23.9372 180.199 23.1499C179.284 21.5296 173.534 10.7619 173.546 10.6919C173.55 10.6641 173.631 10.7001 173.719 10.7691ZM171.963 23.213C173.02 24.054 176.312 25.5475 178.831 26.3305C181.012 27.0092 182.248 27.7527 180.87 27.5576C180.596 27.5191 179.916 27.4444 179.369 27.3926C177.553 27.2213 175.441 26.4107 173.916 25.2988C173.007 24.6368 171.417 23.1003 171.558 23.0215C171.61 22.9928 171.798 23.0814 171.963 23.213Z" fill="#3F0429"/>
<path d="M360.872 161.523H359.224L397.958 59.4865L435.455 161.523H427.626L412.174 119.557H376.942L360.872 161.523ZM376.942 119.557H412.174L394.867 72.0354L376.942 119.557Z" fill="#3F0429"/>
<path d="M5.88581 163.48H4.23756L42.9714 61.4436L80.4691 163.48H72.6399L57.1876 121.514H21.9562L5.88581 163.48ZM21.9562 121.514H57.1876L39.881 73.9925L21.9562 121.514Z" fill="#3F0429"/>
<path d="M403.576 160.7H401.928L440.662 58.6636L478.159 160.7H470.33L454.878 118.734H419.647L403.576 160.7ZM419.647 118.734H454.878L437.571 71.2125L419.647 118.734Z" fill="#3F0429"/>
<path d="M531.599 158.593C531.599 165.039 530.569 170.936 528.509 176.285C526.449 181.634 523.564 186.16 519.856 189.863C516.147 193.703 511.614 196.651 506.258 198.708C501.038 200.903 495.201 202 488.745 202C482.564 202 476.589 201.04 470.82 199.12C465.051 197.2 459.969 194.457 455.574 190.891C451.316 187.325 447.882 182.868 445.272 177.519C442.663 172.308 441.358 166.411 441.358 159.828C441.358 153.793 442.319 148.513 444.242 143.987C446.302 139.461 449.05 135.69 452.483 132.673C456.055 129.655 460.244 127.392 465.051 125.884C469.859 124.375 475.147 123.621 480.916 123.621H484.624V124.444C479.405 124.444 474.46 125.404 469.79 127.324C465.257 129.244 461.274 131.918 457.84 135.347C454.544 138.776 451.865 142.753 449.805 147.279C447.882 151.804 446.921 156.742 446.921 162.09C446.921 168.125 447.882 173.474 449.805 178.137C451.865 182.8 454.681 186.708 458.252 189.863C461.823 193.017 466.013 195.417 470.82 197.063C475.765 198.846 481.122 199.737 486.891 199.737C498.703 199.737 507.974 196.24 514.705 189.245C521.573 182.251 525.006 172.925 525.006 161.268C525.006 155.233 523.702 149.679 521.092 144.604C518.482 139.53 515.186 134.73 511.202 130.204C507.219 125.541 502.961 121.084 498.428 116.832C493.896 112.581 489.638 108.398 485.654 104.283C481.671 100.169 478.375 96.0545 475.765 91.9401C473.155 87.6886 471.85 83.2999 471.85 78.7741C471.85 72.6025 473.773 67.9395 477.619 64.7851C481.603 61.6308 486.547 60.0536 492.453 60.0536C497.398 60.0536 501.794 60.6022 505.639 61.6994C509.623 62.6594 513.194 63.8251 516.353 65.1966V71.7796C513.743 68.351 510.172 65.7452 505.639 63.9623C501.107 62.1794 496.643 61.2879 492.247 61.2879C487.165 61.2879 482.77 62.6594 479.061 65.4023C475.49 68.1452 473.705 72.2596 473.705 77.7455C473.705 81.997 475.147 86.1114 478.031 90.0886C480.916 93.9287 484.487 97.8374 488.745 101.815C493.003 105.792 497.604 109.838 502.549 113.952C507.631 117.929 512.301 122.249 516.559 126.912C520.817 131.438 524.388 136.307 527.273 141.518C530.157 146.73 531.599 152.422 531.599 158.593Z" fill="#3F0429"/>
<path d="M414.345 178.854C411.186 180.5 408.233 181.871 405.486 182.968C402.876 184.065 400.198 184.957 397.451 185.643C394.841 186.465 392.094 187.014 389.21 187.288C386.325 187.7 383.097 187.905 379.526 187.905C372.109 187.905 365.859 186.191 360.777 182.762C355.695 179.471 351.3 175.357 347.591 170.419C344.02 165.482 340.792 160.065 337.908 154.167C335.023 148.27 332.002 142.853 328.842 137.916C325.683 132.978 322.043 128.864 317.923 125.572C313.94 122.144 308.995 120.429 303.089 120.429H285.576V160.133H278.365V59.3308H305.149C310.094 59.3308 314.832 59.8794 319.365 60.9766C324.035 62.0737 328.156 63.8566 331.727 66.3253C335.298 68.7939 338.183 72.0168 340.38 75.9941C342.578 79.8342 343.677 84.4971 343.677 89.983C343.677 94.5088 342.784 98.6232 340.998 102.326C339.35 105.892 337.015 108.978 333.993 111.584C331.109 114.189 327.744 116.247 323.898 117.755C320.052 119.127 316 119.949 311.742 120.224C316.275 121.595 320.327 124.201 323.898 128.041C327.606 131.744 331.109 135.996 334.405 140.796C337.702 145.459 340.998 150.396 344.295 155.607C347.729 160.682 351.437 165.345 355.42 169.596C359.404 173.985 363.799 177.551 368.606 180.294C373.551 183.037 379.32 184.408 385.913 184.408C391.407 184.408 396.146 183.86 400.129 182.762C404.25 181.665 408.645 179.745 413.315 177.002L414.345 178.854ZM285.576 118.989H305.355C314.283 118.989 321.494 116.452 326.988 111.378C332.62 106.166 335.435 99.0347 335.435 89.983C335.435 80.9313 332.62 73.8683 326.988 68.7939C321.494 63.7195 314.283 61.1823 305.355 61.1823H285.576V118.989Z" fill="#3F0429"/>
<path d="M169.564 201.277C168.053 201.414 166.542 201.483 165.031 201.483C163.657 201.62 162.215 201.689 160.704 201.689C150.54 201.689 141.681 199.151 134.126 194.077C126.572 189.14 119.841 182.694 113.935 174.739C108.029 166.785 102.741 157.802 98.0708 147.79C93.5381 137.778 89.1428 127.767 84.8848 117.755C80.7642 107.606 76.5749 97.9375 72.3169 88.7487C68.1963 79.5599 63.595 71.8111 58.5129 65.5024V160.133H56.8646V63.6509C46.2883 51.8563 33.3084 45.959 17.9247 45.959C15.0403 45.959 12.1558 46.2333 9.2714 46.7819C6.24961 47.1934 3.36518 47.7419 0.618095 48.4277L0 46.9876C6.8677 45.0676 13.5294 44.1076 19.985 44.1076C28.501 44.1076 36.1928 45.8219 43.0605 49.2505C49.9282 52.6792 56.1092 57.2736 61.6033 63.0337C67.2348 68.6567 72.2483 75.1712 76.6436 82.5771C81.0389 89.8459 85.0222 97.3889 88.5934 105.206C92.1646 113.024 95.3924 120.772 98.2769 128.453C101.299 136.133 104.114 143.196 106.724 149.642L144.634 59.3308H151.639V160.133H144.634V63.8566L107.548 151.699C110.021 157.459 112.768 163.219 115.79 168.979C118.949 174.739 122.589 179.882 126.709 184.408C130.83 188.934 135.569 192.637 140.925 195.517C146.419 198.397 152.738 199.837 159.88 199.837C161.391 199.837 162.902 199.769 164.413 199.631C166.061 199.631 167.641 199.494 169.152 199.22L169.564 201.277Z" fill="#3F0429"/>
<path d="M272.14 117.361C273.996 108.897 270.305 100.5 263.479 95.8828C267.285 91.0786 268.858 84.6104 267.174 78.2057C264.433 67.7908 254.08 61.3237 243.623 63.2204C239.593 54.3222 229.609 49.3023 219.824 51.7861C215.195 52.9606 211.356 55.6269 208.686 59.1361C203.739 53.5532 195.907 50.8522 188.199 52.8087C177.28 55.5798 170.748 66.6454 173.609 77.5256C173.664 77.7349 173.724 77.943 173.786 78.1505C163.875 81.5716 158.14 92.0545 160.853 102.37C162.139 107.261 165.105 111.28 168.972 113.973C167.005 118.118 166.438 122.956 167.7 127.758C170.108 136.914 178.402 143.018 187.478 143.072C188.102 152.181 194.715 160.186 204.18 162.255C213.233 164.233 222.185 160.189 226.78 152.824C233.368 154.601 240.691 153.153 246.144 148.327C250.587 144.392 252.913 138.99 253.051 133.51C262.134 132.998 270.117 126.591 272.14 117.361ZM220.664 54.9732C226.317 53.5384 232.052 55.0936 236.173 58.6418C232.069 56.2179 226.624 55.3936 221.14 56.7854C217.077 57.8165 213.632 59.9037 211.145 62.5717C211.021 62.3541 210.894 62.1383 210.762 61.9259C213.007 58.5954 216.444 56.0445 220.664 54.9732ZM162.84 93.7505C164.835 88.3125 169.197 83.8435 175.021 81.8679C175.344 82.5351 175.695 83.1831 176.073 83.8091C170.166 85.5683 165.48 89.2627 162.84 93.7505ZM176.019 69.6251C178.159 63.6419 182.946 58.7735 189.254 57.0044C195.563 55.2356 201.916 56.9795 206.449 61.09C201.921 58.3007 195.876 57.4103 189.757 59.1266C183.637 60.8439 178.743 64.8016 176.019 69.6251ZM212.644 81.8216C208.936 80.4446 203.494 79.7092 199.182 80.8043C193.698 82.1961 189.34 85.5083 186.945 89.5805C188.804 84.5156 193.053 80.4272 198.706 78.9924C203.286 77.8313 207.915 78.6319 211.701 80.863C211.256 80.2667 211.061 79.6528 211.177 79.0673C211.575 77.0597 215.479 76.1435 219.898 77.0199C224.316 77.8961 227.574 80.2327 227.176 82.239C226.777 84.2452 222.874 85.1617 218.456 84.2855C216.031 83.8055 213.957 82.8866 212.644 81.8216ZM227.963 89.5865C222.24 91.2361 217.653 95.0068 215.092 99.5919C217.113 93.9099 221.599 89.2744 227.499 87.5741C233.399 85.875 239.329 87.5089 243.551 91.3937C239.332 88.7624 233.688 87.9375 227.963 89.5865ZM243.665 68.9258C237.733 70.6215 232.982 74.5096 230.333 79.2391C232.421 73.3757 237.068 68.5963 243.183 66.8478C249.298 65.1005 255.447 66.7929 259.828 70.8064C255.45 68.0869 249.597 67.2304 243.665 68.9258Z" fill="#3F0429"/>
<path d="M232.822 73.9726C230.766 72.0459 228.461 70.4011 226.749 68.3325C213.357 74.6424 198.389 87.0845 192.451 96.6482C195.065 97.4365 197.464 98.6342 199.828 99.6685L201.502 100.302C206.036 94.5347 220.121 88.6665 226.749 83.6836C231.304 80.2538 227.865 77.203 232.822 73.9726Z" fill="#3F0429"/>
<path d="M497.405 153.644C495.871 150.222 496.545 145.039 500.327 143.381C502.587 142.39 502.777 143.572 504.368 144.201C504.821 144.38 505.343 144.414 505.818 144.517C508.062 145 509.037 147.364 508.869 149.458C506.284 150.066 504.827 152.266 503.695 154.473L503.728 154.531C503.866 154.346 503.992 154.105 504.068 153.887C504.338 153.112 505.526 151.651 506.102 151.054L506.169 151.034L506.187 151.061L506.16 151.03C506.318 151.41 504.27 153.328 504.016 154.671L504.063 154.737C504.728 152.406 507.803 148.83 510.603 149.643C512.505 150.196 512.822 152.74 514.89 152.981C512.63 154.945 515.832 158.85 509.931 160.049C510.869 160.328 512.044 159.217 512.743 158.883L512.804 158.968C512.967 158.984 513.106 158.875 513.256 158.979C513.252 159.252 512.666 159.624 512.457 159.727C511.323 160.281 510.885 160.649 509.441 160.636L509.409 160.697L509.389 160.636L509.371 160.695L509.223 160.665L509.59 160.675C511.889 160.818 513.671 159.17 514.535 157.19C514.622 160.596 511.974 162.044 508.869 162.342C509.592 162.489 510.503 162.156 511.179 161.916C511.248 161.891 511.455 161.793 511.502 161.849L511.471 161.924L511.504 161.98C511.59 161.988 511.672 161.99 511.758 161.99C511.57 162.262 509.857 162.603 509.523 162.632L509.59 162.647C510.491 162.59 511.569 162.293 512.312 161.764C513.499 163.553 512.843 165.522 511.658 167.093C510.651 168.429 509.841 169.077 510.061 170.836C507.418 170.79 505.078 171.656 502.968 169.457C501.221 167.634 501.392 166.574 500.979 164.467C500.916 164.741 501.081 165.027 501.03 165.295C500.859 165.138 500.877 164.829 500.713 164.65L500.655 164.661C500.603 164.785 500.597 164.94 500.579 165.073C500.477 164.956 500.614 164.645 500.519 164.467C500.383 164.213 500.34 163.888 500.312 163.605C500.242 164.041 500.062 164.973 499.802 165.33C499.487 166.161 498.762 167.204 498.078 167.773C498.601 167.045 498.858 166.396 499.152 165.556C499.237 164.869 499.418 164.162 499.465 163.476C499.065 164.125 498.809 165.225 498.41 165.747L498.381 165.734C498.085 165.816 498.246 164.871 497.768 165.124C497.772 164.926 497.776 164.73 497.768 164.533C497.65 164.727 497.539 164.941 497.405 165.124C497.058 164.976 497.526 164.809 497.042 164.644L496.94 164.696C497.107 164.335 497.264 163.976 497.405 163.605C496.751 164.121 496.397 164.963 495.823 165.556L495.806 165.511L495.757 165.512C495.586 165.668 495.428 165.839 495.268 166.006L495.234 166.002C495.309 165.68 495.647 165.465 495.757 165.158C495.557 164.533 496.729 164.488 496.801 163.788C496.662 163.588 496.536 163.904 496.671 163.537L496.621 163.476C496.802 163.144 497.078 162.855 497.117 162.463L497.169 162.347C497.275 162.535 497.327 162.518 497.519 162.463C497.124 162.315 497.079 162.038 497.04 161.642C496.118 161.858 495.446 160.802 495.492 160.232C495.503 160.087 495.637 159.938 495.636 159.811C495.635 159.289 494.883 159.034 495.823 158.067C495.839 157.48 495.86 157.331 496.465 157.19C496.553 155.687 497.639 156.474 497.946 155.8C497.622 155.729 497.365 155.76 497.04 155.8C496.371 154.79 496.028 154.551 494.915 154.06C495.66 154.699 496.116 155.166 496.465 156.095C495.428 155.821 494.406 155.096 493.113 154.737C494.191 155.381 496.109 156.319 495.533 157.784C492.997 157.237 490.255 157.487 488.175 155.822C487.129 154.986 486.329 153.767 486.181 152.42C485.815 149.091 486.941 149.326 488.965 147.632C490.2 146.597 490.785 145.382 492.551 145.213C494.095 145.066 495.315 145.741 496.465 146.699C495.946 148.452 495.816 150.393 496.508 152.116C496.721 152.645 497.122 153.082 497.26 153.644H497.405Z" fill="white"/>
<path d="M497.405 153.644C495.871 150.222 496.545 145.039 500.327 143.381C502.587 142.39 502.777 143.572 504.368 144.201C504.821 144.38 505.343 144.414 505.818 144.517C508.062 145 509.037 147.364 508.869 149.458C506.284 150.066 504.827 152.266 503.695 154.473C503.49 154.894 502.574 156.834 502.21 157C502.105 156.814 502.004 156.63 501.872 156.46C501.802 154.558 502.096 153.301 503.695 152.221C502.233 152.775 501.35 153.779 500.841 155.219C500.879 154.117 500.726 153.569 501.105 152.402C500.167 153.212 500.299 154.538 500.056 154.912C499.904 154.874 499.487 152.868 499.259 152.402C499.326 153.296 499.24 154.349 498.991 155.219C498.661 154.405 498.323 153.594 497.946 152.801C498.077 153.44 498.087 154.088 498.078 154.737C498.065 155.04 498.021 155.338 497.946 155.631V155.8C497.622 155.729 497.365 155.76 497.04 155.8C496.371 154.79 496.028 154.551 494.915 154.06C495.66 154.699 496.116 155.166 496.465 156.095C495.428 155.821 494.406 155.096 493.113 154.737C494.191 155.381 496.109 156.319 495.533 157.784C492.997 157.237 490.255 157.487 488.175 155.822C487.129 154.986 486.329 153.767 486.181 152.42C485.815 149.091 486.941 149.326 488.965 147.632C490.2 146.597 490.785 145.382 492.551 145.213C494.095 145.066 495.315 145.741 496.465 146.699C495.946 148.452 495.816 150.393 496.508 152.116C496.721 152.645 497.122 153.082 497.26 153.644H497.405Z" fill="#3F0429"/>
<path d="M497.405 153.644C497.603 153.986 497.685 154.388 497.871 154.737C497.866 154.911 497.88 155.073 497.768 155.218C497.678 154.69 497.438 154.15 497.26 153.644H497.405Z" fill="#3F0429"/>
<path d="M497.405 153.644C497.603 153.986 497.685 154.388 497.871 154.737C497.866 154.911 497.88 155.073 497.768 155.218C497.678 154.69 497.438 154.15 497.26 153.644H497.405Z" fill="url(#paint0_linear_17_610)"/>
<path d="M504.063 154.737C504.728 152.406 507.803 148.83 510.603 149.643C512.505 150.196 512.822 152.74 514.89 152.981C512.63 154.945 515.832 158.85 509.931 160.049C509.01 159.991 506.956 160.079 506.053 160.137C504.948 160.208 504.167 160.517 503.166 159.93C504.431 159.616 505.572 158.593 507.448 158.17C506.497 158.148 505.777 158.277 504.857 158.486C505.916 157.687 506.35 157.494 507.636 157.191C505.725 156.958 505.117 157.627 503.695 158.486C505.671 156.104 505.133 155.543 508.109 154.06C505.405 154.372 504.705 155.777 503.166 157.444C503.327 156.551 503.57 155.513 504.063 154.737Z" fill="#3F0429"/>
<path d="M503.832 161.642C505.39 162.344 507.995 163.292 509.59 162.647C510.491 162.59 511.569 162.293 512.312 161.764C513.499 163.553 512.843 165.522 511.658 167.093C510.651 168.429 509.841 169.077 510.061 170.836C507.418 170.79 505.078 171.656 502.968 169.457C501.221 167.634 501.392 166.574 500.979 164.467C501.098 164.032 500.944 163.283 500.979 162.791C502.224 163.526 503.023 164.487 504.063 165.123C503.609 164.495 503.12 163.892 502.675 163.251C503.548 163.995 504.663 164.383 505.559 165.123C504.998 164.248 504.135 163.5 503.377 162.791C504.626 163.227 505.952 164.145 507.337 164.696C505.994 163.812 504.867 162.879 503.832 161.642Z" fill="#3F0429"/>
<path d="M498.991 155.9C500.276 154.941 499.933 156.316 501.197 156.463C501.73 156.525 502.541 157.268 502.416 157.866C502.306 158.392 502.846 158.198 502.675 159.386C502.768 159.506 502.868 159.623 502.942 159.756C502.817 160.108 502.721 160.397 502.327 160.477C502.338 161.288 502.134 161.656 501.342 161.862C501.132 162.249 500.951 162.499 500.519 162.647C500.36 162.59 500.197 162.539 500.046 162.463C499.876 162.668 499.684 162.805 499.465 162.952C498.973 163.02 498.84 162.93 498.561 162.548L498.078 162.647C497.9 162.549 497.725 162.477 497.519 162.463C497.124 162.315 497.079 162.038 497.04 161.642C496.118 161.858 495.446 160.802 495.492 160.232C495.503 160.087 495.637 159.938 495.636 159.811C495.635 159.289 494.883 159.034 495.823 158.067C495.839 157.48 495.86 157.331 496.465 157.19C496.553 155.687 497.639 156.474 497.946 155.8C498.32 155.504 498.638 155.661 498.991 155.9Z" fill="#3F0429"/>
<path d="M498.561 156.719C498.933 156.887 498.874 157.068 498.691 157.348C498.269 157.452 498.434 156.896 498.561 156.719Z" fill="white"/>
<path d="M499.152 157.961C499.403 157.958 499.597 158.008 499.6 158.286C499.234 158.335 499.112 158.369 499.152 157.961Z" fill="#3F0429"/>
<path d="M501.676 159.226C501.993 159.328 501.735 159.613 501.544 159.673C501.147 159.6 501.468 159.291 501.676 159.226Z" fill="#3F0429"/>
<path d="M499.6 159.226C499.879 159.261 499.938 159.42 499.874 159.673C499.605 159.595 499.476 159.51 499.6 159.226Z" fill="#3F0429"/>
<path d="M497.768 156.977C497.883 157.154 497.842 157.386 497.636 157.443C497.358 157.208 497.462 157.062 497.768 156.977Z" fill="#3F0429"/>
<path d="M497.405 158.823C497.764 158.821 497.754 158.934 497.636 159.226C497.384 159.264 497.332 159.031 497.405 158.823Z" fill="#3F0429"/>
<path d="M498.078 161.322L498.186 161.321L498.234 161.403C498.234 161.538 498.209 161.606 498.078 161.642C497.79 161.509 497.77 161.421 498.078 161.322Z" fill="white"/>
<path d="M499.874 157.191L500.002 157.202C500.178 157.338 500.156 157.462 500.046 157.645C499.857 157.492 499.725 157.424 499.874 157.191Z" fill="#3F0429"/>
<path d="M498.186 158.067L498.284 158.12C498.364 158.273 498.34 158.392 498.186 158.486C497.887 158.33 497.895 158.211 498.186 158.067Z" fill="white"/>
<path d="M496.767 159.074C496.963 159.177 496.853 159.528 496.767 159.673L496.631 159.607C496.511 159.401 496.629 159.241 496.767 159.074Z" fill="white"/>
<path d="M500.979 160.477C501.285 160.48 501.268 160.638 501.105 160.835C501.035 160.851 501.02 160.85 500.954 160.837L500.91 160.765C500.908 160.653 500.937 160.579 500.979 160.477Z" fill="#3F0429"/>
<path d="M499.465 160.477C499.706 160.519 499.772 160.615 499.669 160.835C499.381 160.794 499.231 160.725 499.465 160.477Z" fill="#3F0429"/>
<path d="M500.312 158.286C500.57 158.456 500.634 158.511 500.519 158.823C500.318 158.646 500.111 158.541 500.312 158.286Z" fill="white"/>
<path d="M501.544 158.067C501.722 158.134 501.685 158.3 501.626 158.45L501.544 158.486C501.323 158.309 501.318 158.241 501.544 158.067Z" fill="#919191"/>
<path d="M498.579 160.512C498.583 160.509 498.588 160.506 498.592 160.504C498.597 160.501 498.602 160.499 498.607 160.497C498.612 160.495 498.617 160.493 498.622 160.491C498.627 160.49 498.632 160.489 498.637 160.488C498.642 160.486 498.648 160.486 498.653 160.485C498.658 160.484 498.664 160.484 498.669 160.484C498.674 160.484 498.68 160.484 498.685 160.485C498.69 160.485 498.695 160.486 498.701 160.487C498.706 160.488 498.711 160.489 498.716 160.491C498.721 160.492 498.726 160.494 498.731 160.496C498.736 160.498 498.741 160.5 498.746 160.502C498.751 160.505 498.755 160.507 498.76 160.51C498.764 160.513 498.768 160.516 498.773 160.519C498.777 160.523 498.781 160.526 498.785 160.53C498.789 160.533 498.792 160.537 498.796 160.541C498.799 160.545 498.803 160.549 498.806 160.554C498.809 160.558 498.812 160.563 498.814 160.567C498.817 160.572 498.819 160.576 498.822 160.581C498.824 160.586 498.826 160.591 498.828 160.596C498.829 160.601 498.831 160.606 498.832 160.611C498.833 160.616 498.834 160.622 498.835 160.627C498.836 160.632 498.836 160.637 498.837 160.643C498.837 160.648 498.837 160.653 498.837 160.659C498.836 160.664 498.836 160.669 498.835 160.675C498.834 160.68 498.833 160.685 498.832 160.69C498.831 160.695 498.829 160.7 498.828 160.705C498.826 160.71 498.824 160.715 498.822 160.72C498.819 160.725 498.817 160.73 498.814 160.734C498.812 160.739 498.809 160.743 498.806 160.748C498.803 160.752 498.799 160.756 498.796 160.76C498.792 160.764 498.789 160.768 498.785 160.772C498.781 160.775 498.777 160.779 498.773 160.782C498.761 160.791 498.748 160.799 498.734 160.804C498.72 160.81 498.706 160.814 498.691 160.816C498.676 160.818 498.661 160.818 498.646 160.815C498.632 160.813 498.617 160.809 498.604 160.803C498.59 160.797 498.577 160.789 498.566 160.78C498.554 160.771 498.544 160.76 498.535 160.748C498.526 160.735 498.519 160.723 498.514 160.708C498.509 160.694 498.506 160.68 498.504 160.665C498.503 160.65 498.504 160.635 498.507 160.62C498.509 160.606 498.514 160.592 498.52 160.578C498.527 160.564 498.535 160.552 498.545 160.541C498.555 160.53 498.566 160.52 498.579 160.512Z" fill="white"/>
<path d="M497.871 159.756L497.92 159.787C497.985 159.961 498.068 160.096 497.946 160.26C497.675 160.107 497.649 159.968 497.871 159.756Z" fill="#3F0429"/>
<path d="M499.152 161.45C499.351 161.495 499.455 161.551 499.465 161.764C499.165 161.806 499.105 161.74 499.152 161.45Z" fill="#3F0429"/>
<path d="M501.105 157.784C501.299 157.817 501.445 157.85 501.342 158.067C501.06 158.115 501.009 158.042 501.105 157.784Z" fill="#3F0429"/>
<path d="M496.767 160.26C496.944 160.318 497.06 160.399 497.041 160.597C496.789 160.64 496.783 160.465 496.767 160.26Z" fill="white"/>
<path d="M500.046 161.322C500.327 161.357 500.258 161.546 500.211 161.764C499.967 161.681 499.995 161.548 500.046 161.322Z" fill="white"/>
<path d="M496.767 157.961C496.937 158.042 497.09 158.078 497.04 158.286C496.708 158.388 496.747 158.251 496.767 157.961Z" fill="white"/>
<path d="M498.839 159.386C499.018 159.472 499.088 159.574 498.991 159.756C498.744 159.728 498.785 159.585 498.839 159.386Z" fill="white"/>
<path d="M500.312 160.26C500.607 160.275 500.616 160.33 500.519 160.597C500.324 160.625 500.329 160.402 500.312 160.26Z" fill="white"/>
<path d="M514.535 157.19C514.622 160.596 511.974 162.044 508.869 162.342C507.261 162.283 506.725 162.162 505.32 161.316C505.109 161.189 504.668 160.97 504.607 160.719C505.095 160.444 508.638 160.893 509.59 160.675C511.889 160.818 513.671 159.17 514.535 157.19Z" fill="#3F0429"/>
<path d="M499.465 163.476C499.418 164.162 499.237 164.869 499.152 165.556C498.858 166.396 498.601 167.045 498.078 167.773C498.762 167.204 499.487 166.161 499.802 165.33C500.062 164.973 500.242 164.041 500.312 163.605C500.34 163.888 500.383 164.213 500.519 164.467C500.44 166.571 501.306 168.646 502.942 169.98C502.81 170.719 502.589 171.35 502.155 171.966C503.161 175.25 503.814 178.732 503.832 182.169C504.039 181.362 504.234 180.533 504.511 179.746C504.974 178.435 504.915 178.558 505.176 177.156C505.749 174.081 507.621 172.782 510.491 172.313C509.833 172.719 509.389 173.176 508.869 173.738C510.739 172.786 512.995 173.055 515.075 173.066C515.142 173.119 515.211 173.165 515.252 173.244C514.584 173.622 513.235 174.001 512.475 174.135C512.398 174.214 512.326 174.271 512.312 174.386C514.202 173.853 517.075 173.196 517.742 171.081C517.619 172.511 517.122 173.22 515.984 173.973C517.094 174.01 517.966 174.459 518.774 175.199C515.735 173.923 511.732 175.056 509.682 177.63L509.725 177.608C510.835 177.048 511.412 176.33 512.838 176.316C513.744 176.208 514.504 176.452 515.252 176.965C513.856 176.519 513.964 176.739 512.838 176.662C509.918 177.496 509.424 180.692 505.392 178.886C503.699 181.974 504.186 183.833 504.044 186.996C503.87 190.887 503.148 196.834 501.105 200C501.271 199.372 501.331 198.739 501.42 198.097C501.709 196.004 502.868 191.555 502.656 189.632C502.494 188.166 501.272 185.493 500.046 184.515H499.874C494.434 186.582 494.395 182.724 490.721 182.585C492.216 182.186 493.613 183.09 494.915 183.681C493.991 182.711 493.285 181.796 492.166 181.035C491.836 180.867 491.503 180.717 491.155 180.587C490.116 180.321 488.766 180.109 487.721 180.425C487.419 180.516 487.048 180.798 486.882 180.836C487.355 180.041 489.152 179.702 489.983 179.623C488.575 178.588 488.305 177.268 487.927 175.671C488.404 176.693 488.831 177.807 489.747 178.531C490.847 179.401 494.754 179.003 496.767 180.111C496.306 179.568 495.696 179.282 495.032 179.063C497.955 178.428 499.301 180.541 499.991 183.021C500.401 184.495 500.532 184.266 501.383 185.418C502.089 186.373 502.476 187.438 502.849 188.55C503.257 184.628 502.727 176.798 501.342 172.877C500.549 173.249 498.068 174.767 497.419 174.74C496.85 174.717 496.399 173.914 495.908 173.612C494.591 172.803 492.949 173.231 491.803 171.967C491.163 171.26 490.493 170.449 490.559 169.436C490.617 168.558 491.911 168.586 492.559 168.262C493.908 167.589 494.739 166.534 495.823 165.556C496.397 164.963 496.751 164.121 497.405 163.605C497.264 163.976 497.107 164.335 496.94 164.696C496.621 165.368 496.317 166.08 495.823 166.646C496.378 166.247 496.998 165.673 497.405 165.124C497.539 164.941 497.65 164.727 497.768 164.533C497.776 164.73 497.772 164.926 497.768 165.124C497.469 166.682 497.206 167.191 496.465 168.485C497.223 167.713 497.964 166.74 498.41 165.747C498.809 165.225 499.065 164.125 499.465 163.476Z" fill="#3F0429"/>
<path d="M494.212 180.833C494.273 180.768 494.333 180.741 494.411 180.7C496.572 181.457 498.058 182.051 499.6 183.841C499.77 184.055 499.92 184.272 500.046 184.515H499.874L499.465 184.026C497.898 182.311 496.385 181.523 494.212 180.833Z" fill="white"/>
<path d="M509.318 175.425C508.075 175.859 506.78 176.928 506.01 177.983C505.908 178.123 505.543 178.77 505.458 178.826C505.129 178.628 506.657 176.028 509.318 175.198L509.297 175.265L509.118 175.362C509.188 175.416 509.233 175.411 509.318 175.425Z" fill="white"/>
<path d="M491.034 179.372C492.173 179.766 493.273 180.294 494.411 180.7C494.333 180.741 494.273 180.768 494.212 180.833C493.165 180.492 491.927 180.013 491.034 179.372Z" fill="#3F0429"/>
<path d="M491.034 179.372C492.173 179.766 493.273 180.294 494.411 180.7C494.333 180.741 494.273 180.768 494.212 180.833C493.165 180.492 491.927 180.013 491.034 179.372Z" fill="url(#paint1_linear_17_610)"/>
<path d="M510.491 174.644C511.151 174.565 511.825 174.292 512.475 174.135C512.398 174.214 512.326 174.271 512.312 174.386C511.781 174.613 511.169 174.739 510.613 174.892L510.625 174.849C510.589 174.766 510.565 174.702 510.491 174.644Z" fill="#3F0429"/>
<path d="M512.838 176.316C513.744 176.208 514.504 176.452 515.252 176.965C513.856 176.519 513.964 176.739 512.838 176.662L512.878 176.603C513.344 176.467 513.835 176.574 514.309 176.596L514.315 176.539C513.953 176.248 513.279 176.454 512.838 176.316Z" fill="#4B4A4C"/>
<path d="M509.318 175.198C509.689 174.981 510.099 174.82 510.491 174.644C510.565 174.702 510.589 174.766 510.625 174.849L510.613 174.892C510.178 175.048 509.722 175.197 509.318 175.425C509.233 175.411 509.188 175.416 509.118 175.362L509.297 175.265L509.318 175.198Z" fill="#3F0429"/>
<path d="M509.318 175.198C509.689 174.981 510.099 174.82 510.491 174.644C510.565 174.702 510.589 174.766 510.625 174.849L510.613 174.892C510.178 175.048 509.722 175.197 509.318 175.425C509.233 175.411 509.188 175.416 509.118 175.362L509.297 175.265L509.318 175.198Z" fill="url(#paint2_linear_17_610)"/>
<path d="M486.277 154.737C486.458 154.826 486.824 155.452 486.989 155.644C488.182 157.035 489.853 157.662 491.636 157.768C492.052 157.793 496.007 157.572 495.305 158.464C495.209 158.506 492.72 158.497 492.386 158.486C493.321 158.918 494.161 159.147 495.032 159.756C494.191 159.712 492.922 159.677 492.166 160.049C493.251 159.906 494.083 160.437 495.126 160.477C494.672 160.95 494.053 161.396 493.557 161.862C494.307 161.572 495.01 161.336 495.823 161.322C495.238 161.7 494.833 162.096 494.411 162.647C494.768 162.404 495.125 162.232 495.533 162.092C495.71 161.989 495.865 161.92 496.061 161.862C494.127 164.21 490.348 167.113 487.124 166.408C484.361 165.804 485.608 163.257 482 162.463C482.615 160.712 483.026 160.822 483.291 158.717C483.52 156.898 484.518 155.416 486.277 154.737Z" fill="#3F0429"/>
<path d="M485.182 166.16C489.26 168.382 492.04 166.992 495.042 163.663C495.59 163.056 496.539 161.084 497.117 162.463C497.078 162.855 496.802 163.144 496.621 163.476C496.104 164.592 494.584 166.123 493.604 166.937C491.038 169.069 487.293 168.734 485.182 166.16Z" fill="#3F0429"/>
<path d="M515.075 173.066C515.378 172.984 515.671 172.904 515.984 172.877L515.252 173.244C515.211 173.165 515.142 173.119 515.075 173.066Z" fill="#4B4A4C"/>
<defs>
<linearGradient id="paint0_linear_17_610" x1="9527.84" y1="3759.78" x2="9450.27" y2="4079.87" gradientUnits="userSpaceOnUse">
<stop stop-color="#444343"/>
<stop offset="1" stop-color="#5F6164"/>
</linearGradient>
<linearGradient id="paint1_linear_17_610" x1="238.611" y1="84.311" x2="306.32" y2="167.961" gradientUnits="userSpaceOnUse">
<stop stop-color="#A7A7A3"/>
<stop offset="1" stop-color="#D4D1D3"/>
</linearGradient>
<linearGradient id="paint2_linear_17_610" x1="563.059" y1="135.409" x2="113.878" y2="243.288" gradientUnits="userSpaceOnUse">
<stop stop-color="#D9D7D8"/>
<stop offset="1" stop-color="white"/>
</linearGradient>
</defs>
</svg>
