<svg width="566" height="202" viewBox="0 0 566 202" fill="none" xmlns="http://www.w3.org/2000/svg">
<path d="M550.476 97.9481C549.219 98.4258 548.905 98.5699 547.056 99.5193C545.581 100.276 543.895 101.415 542.971 102.277C542.778 102.456 542.538 102.679 542.415 102.79C540.88 104.189 538.98 107.003 538.322 108.854C537.764 110.423 537.207 113.479 537.373 114.062C537.41 114.192 537.392 114.365 537.334 114.428C536.927 114.866 536.708 110.751 537.041 108.949C537.263 107.756 537.793 106.294 538.495 104.938C538.906 104.144 540.325 102.359 540.608 102.278C540.681 102.257 540.722 102.175 540.7 102.097C540.675 102.008 540.556 102.018 540.385 102.123C540.233 102.217 539.731 102.517 539.253 102.801C537.942 103.578 536.619 104.502 535.752 105.245C533.899 106.834 531.675 109.935 530.64 112.373C528.405 117.64 528.367 124.689 530.533 132.301C530.982 133.881 531.169 134.716 531.069 134.689C530.987 134.667 530.884 134.544 530.851 134.426C530.816 134.304 530.501 133.778 530.151 133.256C529.552 132.362 529.268 131.87 528.578 130.527C527.503 128.433 526.157 124.418 525.88 122.473C525.33 118.621 525.579 114.706 526.551 111.939C526.743 111.39 526.873 110.919 526.837 110.898C526.745 110.844 524.635 112.832 523.56 113.987C521.041 116.694 518.967 120.398 517.99 123.935C517.6 125.344 517.616 125.582 518.126 125.999C519.284 126.945 522.581 130.394 523.601 131.727C526.599 135.647 528.747 139.334 530.369 143.355C531.844 146.928 531.862 150.268 532.739 155.268C532.739 157.353 532.992 161.237 532.54 164.303C532.54 164.303 534.617 164.222 535.65 164.029C537.608 163.664 544.276 161.73 545.282 161.237C545.772 160.996 546.496 160.644 546.917 160.442C547.989 159.929 549.627 159.006 550.633 158.349C552.178 157.338 554.74 155.168 555.537 154.195C555.697 154 555.86 153.834 555.904 153.822C556.076 153.773 557.674 151.838 558.599 150.558C559.77 148.937 561.995 144.852 562.596 143.216C562.845 142.54 563.251 141.295 563.499 140.448C563.746 139.602 564.016 138.719 564.098 138.486C564.258 138.032 564.074 137.863 563.753 138.169C563.451 138.457 562.841 138.941 561.906 139.633C561.445 139.974 560.974 140.329 560.845 140.432C559.79 141.274 555.542 143.891 554.264 144.486C553.981 144.618 553.482 144.856 553.129 145.027C552.785 145.194 551.947 145.554 551.279 145.822C545.058 148.319 538.962 149.127 532.992 148.245C532.409 148.159 532.403 148.153 532.739 148.01C532.931 147.928 533.206 147.887 533.358 147.918C533.893 148.028 538.896 147.501 541.353 147.077C543.005 146.791 548.506 145.239 549.652 144.735C550.123 144.528 550.99 144.151 551.59 143.894C557.766 141.238 562.611 136.638 564.663 131.482C565.388 129.659 565.936 126.732 565.984 124.432C566.056 120.82 565.902 118.924 565.221 115.053C564.691 112.042 564.537 111.661 564.261 112.686C563.704 114.765 560.235 119.161 557.158 121.688C556.866 121.927 556.38 122.326 556.056 122.593C554.884 123.554 552.505 124.963 550.602 125.826C550.082 126.061 549.375 126.396 549.043 126.564C548.707 126.734 547.926 127.015 547.29 127.195C546.654 127.376 545.926 127.641 545.655 127.793C545.383 127.945 545.136 128.049 545.099 128.028C544.951 127.946 545.261 127.488 545.512 127.417C545.799 127.336 548.902 125.338 550.826 123.996C551.474 123.543 552.548 122.798 553.23 122.326C554.786 121.251 558.309 118.127 559.417 116.84C560.988 115.014 562.074 112.889 562.323 111.147C562.382 110.736 562.448 110.282 562.472 110.117C562.611 109.176 562.447 106.822 562.103 104.817C561.741 102.71 560.566 99.1994 559.425 96.8137C559.181 96.3043 559.124 96.2667 558.587 96.2554C557.754 96.2389 556.333 96.4376 554.247 96.8585C552.27 97.2597 552.35 97.2359 550.476 97.9481ZM553.048 107.428C552.988 108.066 548.928 118.92 548.531 119.503C548.498 119.552 548.292 119.996 548.079 120.48C547.865 120.964 547.665 121.406 547.639 121.451C547.613 121.497 547.329 122.09 547.014 122.758C546.313 124.245 543.775 128.66 542.441 130.717C541.257 132.543 538.691 136.125 538.536 136.169C538.471 136.188 538.343 136.351 538.253 136.532C538.093 136.853 538.102 136.857 538.592 136.718C538.866 136.64 539.526 136.577 540.042 136.579C542.724 136.592 546.307 136.024 548.552 135.231C549.306 134.963 550.014 134.692 550.133 134.623C550.256 134.551 550.361 134.542 550.378 134.602C550.416 134.736 549.135 135.568 548.263 135.976C547.916 136.138 546.83 136.602 545.856 137.007C544.319 137.645 543.88 137.777 542.565 137.996C540.995 138.258 540.894 138.266 538.839 138.34C537.01 138.405 536.53 138.401 536.069 138.32L535.647 138.245L536.703 136.876C537.809 135.441 540.312 131.178 541.606 128.525C542.019 127.674 542.537 126.633 542.746 126.226C542.956 125.816 543.477 124.784 543.904 123.929C544.331 123.074 544.785 122.183 544.916 121.949C545.047 121.711 545.5 120.859 545.934 120.03C546.828 118.323 552.95 107.263 553.017 107.234C553.044 107.222 553.058 107.312 553.048 107.428ZM541.234 112.924C541.099 114.315 541.656 118.012 542.396 120.638C543.036 122.912 543.087 124.404 542.479 123.098C542.358 122.839 542.039 122.207 541.776 121.703C540.901 120.032 540.414 117.743 540.521 115.794C540.585 114.633 541.024 112.387 541.172 112.465C541.226 112.493 541.255 112.707 541.234 112.924Z" fill="#3F0429"/>
<path d="M164.677 7.86327C164.404 9.13028 164.356 9.4601 164.153 11.455C163.991 13.0455 164.028 15.0084 164.241 16.2084C164.285 16.4582 164.34 16.7698 164.365 16.9277C164.693 18.9052 165.975 21.9219 167.13 23.4271C168.11 24.7033 170.296 26.7612 170.855 26.9335C170.981 26.9721 171.112 27.0777 171.132 27.1578C171.273 27.7168 167.82 25.7303 166.534 24.5126C165.683 23.7055 164.776 22.5089 164.045 21.2274C163.618 20.4771 162.916 18.3912 163 18.1196C163.021 18.0498 162.976 17.9733 162.901 17.9502C162.815 17.9239 162.761 18.0252 162.756 18.2184C162.752 18.3909 162.732 18.9546 162.711 19.4902C162.651 20.9593 162.705 22.5147 162.851 23.6065C163.166 25.9414 164.511 29.3706 165.944 31.49C169.041 36.0676 174.737 39.8057 182.051 42.0583C183.569 42.5258 184.344 42.8132 184.27 42.8807C184.209 42.9356 184.055 42.9535 183.942 42.9187C183.824 42.8824 183.232 42.8599 182.625 42.8689C181.584 42.8835 181.036 42.8535 179.584 42.7053C177.32 42.4737 173.355 41.4499 171.632 40.6509C168.219 39.07 165.175 36.8091 163.441 34.5681C163.097 34.1244 162.783 33.7706 162.748 33.7887C162.655 33.8352 163.158 36.5869 163.529 38.0634C164.4 41.5246 166.313 45.1498 168.668 47.8003C169.606 48.8565 177.725 57.4664 178.331 57.2736C179.434 56.2541 179.762 56.0118 182.051 54.2458C184.22 52.5719 189.387 51.163 190.779 51.0186C192.171 50.8743 196.217 50.8053 200.82 52.7614C203.042 53.7059 204.246 54.4002 205.865 55.4894C207.485 56.5786 208.181 57.2736 208.877 57.9686C209.61 56.1928 213.149 46.4236 213.277 45.351C213.34 44.8281 213.435 44.0569 213.493 43.6105C213.64 42.4742 213.753 40.6644 213.749 39.5051C213.743 37.7238 213.33 34.5109 212.96 33.3542C212.886 33.1229 212.837 32.9035 212.85 32.8616C212.901 32.6966 212.172 30.3871 211.62 28.9661C210.922 27.1662 208.778 23.2185 207.768 21.8718C207.351 21.3151 206.554 20.3316 205.998 19.6863C205.442 19.0409 204.867 18.3581 204.722 18.17C204.437 17.8015 204.204 17.8617 204.283 18.2824C204.358 18.6779 204.429 19.4255 204.499 20.5451C204.533 21.0978 204.573 21.6648 204.589 21.824C204.717 23.12 204.605 27.9313 204.416 29.277C204.373 29.5754 204.304 30.1044 204.257 30.4793C204.212 30.8461 204.063 31.7123 203.929 32.3939C202.682 38.7378 200.131 44.0919 196.276 48.4552C195.9 48.8814 195.892 48.8831 195.952 48.5361C195.986 48.3382 196.098 48.0946 196.203 47.988C196.574 47.6128 198.778 43.2902 199.726 41.08C200.363 39.5942 201.998 34.3289 202.192 33.1376C202.271 32.6478 202.422 31.749 202.528 31.1284C203.623 24.7374 202.44 18.4002 199.338 14.0291C198.241 12.4833 196.155 10.5008 194.315 9.25295C191.423 7.29478 189.804 6.42206 186.306 4.93611C183.586 3.78122 183.195 3.70554 183.882 4.46745C185.275 6.0113 187.016 11.1291 187.447 14.9457C187.487 15.3084 187.555 15.9105 187.601 16.3138C187.764 17.7665 187.656 20.4314 187.355 22.4239C187.272 22.9683 187.172 23.7158 187.133 24.0722C187.094 24.4342 186.911 25.2132 186.723 25.8225C186.535 26.4318 186.368 27.1601 186.348 27.4585C186.328 27.7583 186.283 28.0125 186.247 28.0319C186.102 28.1084 185.894 27.6175 185.968 27.3763C186.053 27.1021 186.065 23.5416 185.989 21.2801C185.962 20.5184 185.922 19.258 185.899 18.4584C185.845 16.6348 185.164 12.1422 184.703 10.5699C184.049 8.33877 182.896 6.34337 181.614 5.22586C181.311 4.96154 180.978 4.66991 180.857 4.56317C180.167 3.95579 178.172 2.8505 176.364 2.07424C174.465 1.25847 171 0.362101 168.464 0.0302467C167.923 -0.0405851 167.863 -0.0146453 167.571 0.41399C167.12 1.07849 166.533 2.33236 165.777 4.24036C165.063 6.0499 165.085 5.97331 164.677 7.86327ZM173.719 10.7691C174.205 11.1537 180.873 20.1451 181.138 20.773C181.16 20.8257 181.411 21.2256 181.692 21.6525C181.972 22.0794 182.225 22.4743 182.248 22.519C182.271 22.5637 182.603 23.1051 182.979 23.7115C183.816 25.0607 186.063 29.435 187.029 31.5953C187.887 33.5138 189.444 37.4725 189.398 37.621C189.379 37.6832 189.444 37.8728 189.543 38.041C189.719 38.3384 189.727 38.334 189.872 37.8644C189.953 37.6016 190.249 37.0353 190.522 36.6189C191.943 34.457 193.367 31.2607 193.904 29.0282C194.084 28.2773 194.236 27.5625 194.243 27.4297C194.25 27.2927 194.298 27.2033 194.355 27.2211C194.483 27.2605 194.484 28.7342 194.357 29.6541C194.306 30.0193 194.111 31.1423 193.927 32.1422C193.636 33.7206 193.512 34.1452 192.998 35.3241C192.385 36.7311 192.339 36.817 191.318 38.518C190.408 40.031 190.153 40.4167 189.844 40.7472L189.561 41.0493L189.007 39.4744C188.425 37.8259 186.284 33.5592 184.812 31.1182C184.34 30.3359 183.767 29.37 183.547 28.9868C183.326 28.6016 182.762 27.6371 182.293 26.8422C181.825 26.0472 181.341 25.2115 181.219 24.9823C181.096 24.751 180.642 23.9372 180.199 23.1499C179.284 21.5296 173.534 10.7619 173.546 10.6919C173.55 10.6641 173.631 10.7001 173.719 10.7691ZM171.963 23.213C173.02 24.054 176.312 25.5475 178.831 26.3305C181.012 27.0092 182.248 27.7527 180.87 27.5576C180.596 27.5191 179.916 27.4444 179.369 27.3926C177.553 27.2213 175.441 26.4107 173.916 25.2988C173.007 24.6368 171.417 23.1003 171.558 23.0215C171.61 22.9928 171.798 23.0814 171.963 23.213Z" fill="#3F0429"/>
<path d="M360.872 161.523H359.224L397.958 59.4865L435.455 161.523H427.626L412.174 119.557H376.942L360.872 161.523ZM376.942 119.557H412.174L394.867 72.0354L376.942 119.557Z" fill="#3F0429"/>
<path d="M5.88581 163.48H4.23756L42.9714 61.4436L80.4691 163.48H72.6399L57.1876 121.514H21.9562L5.88581 163.48ZM21.9562 121.514H57.1876L39.881 73.9925L21.9562 121.514Z" fill="#3F0429"/>
<path d="M403.576 160.7H401.928L440.662 58.6636L478.159 160.7H470.33L454.878 118.734H419.647L403.576 160.7ZM419.647 118.734H454.878L437.571 71.2125L419.647 118.734Z" fill="#3F0429"/>
<path d="M531.599 158.593C531.599 165.039 530.569 170.936 528.509 176.285C526.449 181.634 523.564 186.16 519.856 189.863C516.147 193.703 511.614 196.651 506.258 198.708C501.038 200.903 495.201 202 488.745 202C482.564 202 476.589 201.04 470.82 199.12C465.051 197.2 459.969 194.457 455.574 190.891C451.316 187.325 447.882 182.868 445.272 177.519C442.663 172.308 441.358 166.411 441.358 159.828C441.358 153.793 442.319 148.513 444.242 143.987C446.302 139.461 449.05 135.69 452.483 132.673C456.055 129.655 460.244 127.392 465.051 125.884C469.859 124.375 475.147 123.621 480.916 123.621H484.624V124.444C479.405 124.444 474.46 125.404 469.79 127.324C465.257 129.244 461.274 131.918 457.84 135.347C454.544 138.776 451.865 142.753 449.805 147.279C447.882 151.804 446.921 156.742 446.921 162.09C446.921 168.125 447.882 173.474 449.805 178.137C451.865 182.8 454.681 186.708 458.252 189.863C461.823 193.017 466.013 195.417 470.82 197.063C475.765 198.846 481.122 199.737 486.891 199.737C498.703 199.737 507.974 196.24 514.705 189.245C521.573 182.251 525.006 172.925 525.006 161.268C525.006 155.233 523.702 149.679 521.092 144.604C518.482 139.53 515.186 134.73 511.202 130.204C507.219 125.541 502.961 121.084 498.428 116.832C493.896 112.581 489.638 108.398 485.654 104.283C481.671 100.169 478.375 96.0545 475.765 91.9401C473.155 87.6886 471.85 83.2999 471.85 78.7741C471.85 72.6025 473.773 67.9395 477.619 64.7851C481.603 61.6308 486.547 60.0536 492.453 60.0536C497.398 60.0536 501.794 60.6022 505.639 61.6994C509.623 62.6594 513.194 63.8251 516.353 65.1966V71.7796C513.743 68.351 510.172 65.7452 505.639 63.9623C501.107 62.1794 496.643 61.2879 492.247 61.2879C487.165 61.2879 482.77 62.6594 479.061 65.4023C475.49 68.1452 473.705 72.2596 473.705 77.7455C473.705 81.997 475.147 86.1114 478.031 90.0886C480.916 93.9287 484.487 97.8374 488.745 101.815C493.003 105.792 497.604 109.838 502.549 113.952C507.631 117.929 512.301 122.249 516.559 126.912C520.817 131.438 524.388 136.307 527.273 141.518C530.157 146.73 531.599 152.422 531.599 158.593Z" fill="#3F0429"/>
<path d="M414.345 178.854C411.186 180.5 408.233 181.871 405.486 182.968C402.876 184.065 400.198 184.957 397.451 185.643C394.841 186.465 392.094 187.014 389.21 187.288C386.325 187.7 383.097 187.905 379.526 187.905C372.109 187.905 365.859 186.191 360.777 182.762C355.695 179.471 351.3 175.357 347.591 170.419C344.02 165.482 340.792 160.065 337.908 154.167C335.023 148.27 332.002 142.853 328.842 137.916C325.683 132.978 322.043 128.864 317.923 125.572C313.94 122.144 308.995 120.429 303.089 120.429H285.576V160.133H278.365V59.3308H305.149C310.094 59.3308 314.832 59.8794 319.365 60.9766C324.035 62.0737 328.156 63.8566 331.727 66.3253C335.298 68.7939 338.183 72.0168 340.38 75.9941C342.578 79.8342 343.677 84.4971 343.677 89.983C343.677 94.5088 342.784 98.6232 340.998 102.326C339.35 105.892 337.015 108.978 333.993 111.584C331.109 114.189 327.744 116.247 323.898 117.755C320.052 119.127 316 119.949 311.742 120.224C316.275 121.595 320.327 124.201 323.898 128.041C327.606 131.744 331.109 135.996 334.405 140.796C337.702 145.459 340.998 150.396 344.295 155.607C347.729 160.682 351.437 165.345 355.42 169.596C359.404 173.985 363.799 177.551 368.606 180.294C373.551 183.037 379.32 184.408 385.913 184.408C391.407 184.408 396.146 183.86 400.129 182.762C404.25 181.665 408.645 179.745 413.315 177.002L414.345 178.854ZM285.576 118.989H305.355C314.283 118.989 321.494 116.452 326.988 111.378C332.62 106.166 335.435 99.0347 335.435 89.983C335.435 80.9313 332.62 73.8683 326.988 68.7939C321.494 63.7195 314.283 61.1823 305.355 61.1823H285.576V118.989Z" fill="#3F0429"/>
<path d="M169.564 201.277C168.053 201.414 166.542 201.483 165.031 201.483C163.657 201.62 162.215 201.689 160.704 201.689C150.54 201.689 141.681 199.151 134.126 194.077C126.572 189.14 119.841 182.694 113.935 174.739C108.029 166.785 102.741 157.802 98.0708 147.79C93.5381 137.778 89.1428 127.767 84.8848 117.755C80.7642 107.606 76.5749 97.9375 72.3169 88.7487C68.1963 79.5599 63.595 71.8111 58.5129 65.5024V160.133H56.8646V63.6509C46.2883 51.8563 33.3084 45.959 17.9247 45.959C15.0403 45.959 12.1558 46.2333 9.2714 46.7819C6.24961 47.1934 3.36518 47.7419 0.618095 48.4277L0 46.9876C6.8677 45.0676 13.5294 44.1076 19.985 44.1076C28.501 44.1076 36.1928 45.8219 43.0605 49.2505C49.9282 52.6792 56.1092 57.2736 61.6033 63.0337C67.2348 68.6567 72.2483 75.1712 76.6436 82.5771C81.0389 89.8459 85.0222 97.3889 88.5934 105.206C92.1646 113.024 95.3924 120.772 98.2769 128.453C101.299 136.133 104.114 143.196 106.724 149.642L144.634 59.3308H151.639V160.133H144.634V63.8566L107.548 151.699C110.021 157.459 112.768 163.219 115.79 168.979C118.949 174.739 122.589 179.882 126.709 184.408C130.83 188.934 135.569 192.637 140.925 195.517C146.419 198.397 152.738 199.837 159.88 199.837C161.391 199.837 162.902 199.769 164.413 199.631C166.061 199.631 167.641 199.494 169.152 199.22L169.564 201.277Z" fill="#3F0429"/>
<path d="M272.14 117.361C273.996 108.897 270.305 100.5 263.479 95.8828C267.285 91.0786 268.858 84.6104 267.174 78.2057C264.433 67.7908 254.08 61.3237 243.623 63.2204C239.593 54.3222 229.609 49.3023 219.824 51.7861C215.195 52.9606 211.356 55.6269 208.686 59.1361C203.739 53.5532 195.907 50.8522 188.199 52.8087C177.28 55.5798 170.748 66.6454 173.609 77.5256C173.664 77.7349 173.724 77.943 173.786 78.1505C163.875 81.5716 158.14 92.0545 160.853 102.37C162.139 107.261 165.105 111.28 168.972 113.973C167.005 118.118 166.438 122.956 167.7 127.758C170.108 136.914 178.402 143.018 187.478 143.072C188.102 152.181 194.715 160.186 204.18 162.255C213.233 164.233 222.185 160.189 226.78 152.824C233.368 154.601 240.691 153.153 246.144 148.327C250.587 144.392 252.913 138.99 253.051 133.51C262.134 132.998 270.117 126.591 272.14 117.361ZM220.664 54.9732C226.317 53.5384 232.052 55.0936 236.173 58.6418C232.069 56.2179 226.624 55.3936 221.14 56.7854C217.077 57.8165 213.632 59.9037 211.145 62.5717C211.021 62.3541 210.894 62.1383 210.762 61.9259C213.007 58.5954 216.444 56.0445 220.664 54.9732ZM162.84 93.7505C164.835 88.3125 169.197 83.8435 175.021 81.8679C175.344 82.5351 175.695 83.1831 176.073 83.8091C170.166 85.5683 165.48 89.2627 162.84 93.7505ZM176.019 69.6251C178.159 63.6419 182.946 58.7735 189.254 57.0044C195.563 55.2356 201.916 56.9795 206.449 61.09C201.921 58.3007 195.876 57.4103 189.757 59.1266C183.637 60.8439 178.743 64.8016 176.019 69.6251ZM212.644 81.8216C208.936 80.4446 203.494 79.7092 199.182 80.8043C193.698 82.1961 189.34 85.5083 186.945 89.5805C188.804 84.5156 193.053 80.4272 198.706 78.9924C203.286 77.8313 207.915 78.6319 211.701 80.863C211.256 80.2667 211.061 79.6528 211.177 79.0673C211.575 77.0597 215.479 76.1435 219.898 77.0199C224.316 77.8961 227.575 80.2327 227.176 82.239C226.777 84.2452 222.874 85.1617 218.456 84.2855C216.031 83.8055 213.957 82.8866 212.644 81.8216ZM227.963 89.5865C222.24 91.2361 217.653 95.0068 215.092 99.5919C217.113 93.9099 221.599 89.2744 227.499 87.5741C233.399 85.875 239.329 87.5089 243.551 91.3937C239.332 88.7624 233.688 87.9375 227.963 89.5865ZM243.665 68.9258C237.733 70.6215 232.982 74.5096 230.333 79.2391C232.421 73.3757 237.068 68.5963 243.183 66.8478C249.298 65.1005 255.447 66.7929 259.828 70.8064C255.45 68.0869 249.597 67.2304 243.665 68.9258Z" fill="#3F0429"/>
<path d="M232.822 73.9726C230.766 72.0459 228.461 70.4011 226.749 68.3325C213.357 74.6424 198.389 87.0845 192.451 96.6482C195.065 97.4365 197.464 98.6342 199.828 99.6685L201.502 100.302C206.036 94.5347 220.121 88.6665 226.749 83.6836C231.304 80.2538 227.865 77.203 232.822 73.9726Z" fill="#3F0429"/>
</svg>
